<svg xmlns="http://www.w3.org/2000/svg" xmlns:xlink="http://www.w3.org/1999/xlink" width="100" zoomAndPan="magnify" viewBox="0 0 75 74.999997" height="100" preserveAspectRatio="xMidYMid meet" version="1.0"><path fill="#000000" d="M 57.03125 49.378906 L 48.046875 47.132812 L 48.046875 40.929688 C 49.679688 38.933594 50.902344 36.527344 51.355469 33.855469 C 53.335938 33.339844 54.464844 31.296875 54.882812 29.566406 C 54.941406 29.566406 54.988281 29.570312 55.046875 29.570312 C 56.0625 29.570312 57.289062 29.425781 58.492188 28.9375 C 58.5 28.933594 58.503906 28.925781 58.511719 28.925781 C 59.199219 28.640625 59.878906 28.246094 60.5 27.691406 C 62.34375 26.042969 63.28125 23.429688 63.28125 19.921875 C 63.28125 9.496094 51.550781 0 38.671875 0 C 29.839844 0 26.503906 3.746094 25.261719 6.285156 C 24.820312 6.472656 24.367188 6.71875 23.925781 7.082031 C 22.058594 8.613281 21.109375 11.328125 21.097656 15.15625 L 21.097656 15.160156 C 21.097656 15.1875 21.09375 15.210938 21.09375 15.234375 L 21.09375 25.441406 C 20.515625 25.832031 19.921875 26.601562 19.921875 28.125 C 19.921875 29.894531 21.058594 33.175781 23.636719 33.851562 C 24.085938 36.597656 25.324219 38.988281 26.953125 40.945312 L 26.953125 47.132812 L 17.96875 49.378906 C 12.21875 50.816406 8.203125 55.957031 8.203125 61.882812 L 8.203125 73.828125 C 8.203125 74.476562 8.726562 75 9.375 75 C 10.023438 75 10.546875 74.476562 10.546875 73.828125 L 10.546875 61.882812 C 10.546875 57.035156 13.832031 52.828125 18.535156 51.652344 L 27.886719 49.316406 C 29.207031 50.210938 33.148438 52.632812 37.257812 52.726562 L 45.703125 55.890625 L 45.703125 73.828125 C 45.703125 74.476562 46.226562 75 46.875 75 C 47.523438 75 48.046875 74.476562 48.046875 73.828125 L 48.046875 55.078125 C 48.046875 54.589844 47.742188 54.152344 47.285156 53.980469 L 41.863281 51.945312 C 44.277344 51.128906 46.25 49.898438 47.109375 49.3125 L 56.464844 51.648438 C 61.167969 52.828125 64.453125 57.035156 64.453125 61.882812 L 64.453125 73.828125 C 64.453125 74.476562 64.976562 75 65.625 75 C 66.273438 75 66.796875 74.476562 66.796875 73.828125 L 66.796875 61.882812 C 66.796875 55.957031 62.78125 50.816406 57.03125 49.378906 Z M 29.296875 43.28125 C 31.621094 45.207031 34.222656 46.421875 36.328125 46.761719 L 36.328125 50.304688 C 33.300781 49.914062 30.402344 48.167969 29.296875 47.433594 Z M 38.671875 46.777344 C 40.910156 46.445312 43.460938 45.214844 45.703125 43.320312 L 45.703125 47.433594 C 44.597656 48.167969 41.699219 49.914062 38.671875 50.304688 Z M 24.351562 25.460938 C 24.039062 25.3125 23.734375 25.210938 23.4375 25.132812 L 23.4375 23.753906 C 23.816406 23.203125 24.636719 22.628906 26.269531 22.15625 C 25.699219 23.613281 24.894531 24.78125 24.351562 25.460938 Z M 23.4375 20.769531 L 23.4375 15.546875 C 24.539062 13.703125 28.679688 10.546875 37.5 10.546875 C 46.320312 10.546875 50.460938 13.703125 51.5625 15.546875 L 51.5625 20.769531 C 49.015625 19.375 44.53125 18.75 37.5 18.75 C 30.46875 18.75 25.984375 19.375 23.4375 20.769531 Z M 51.5625 23.753906 L 51.5625 25.132812 C 51.265625 25.210938 50.957031 25.3125 50.644531 25.460938 C 50.105469 24.785156 49.300781 23.621094 48.726562 22.15625 C 50.359375 22.628906 51.183594 23.203125 51.5625 23.753906 Z M 51.5625 31.050781 L 51.5625 27.628906 C 52.132812 27.347656 52.503906 27.328125 52.585938 27.375 C 52.609375 27.386719 52.734375 27.578125 52.734375 28.125 C 52.734375 28.953125 52.296875 30.289062 51.5625 31.050781 Z M 25.382812 8.917969 C 26.523438 7.960938 27.828125 8.167969 27.90625 8.183594 C 28.535156 8.304688 29.148438 7.890625 29.273438 7.261719 C 29.398438 6.625 28.988281 6.007812 28.355469 5.882812 C 28.351562 5.882812 28.328125 5.878906 28.324219 5.878906 C 29.816406 4.140625 32.777344 2.34375 38.671875 2.34375 C 51.414062 2.34375 60.9375 11.625 60.9375 19.921875 C 60.9375 22.242188 60.472656 24.019531 59.566406 25.238281 C 59.378906 22.53125 58.03125 20.046875 57.078125 19.09375 C 56.621094 18.636719 55.878906 18.636719 55.421875 19.09375 C 54.964844 19.550781 54.964844 20.292969 55.421875 20.75 C 56.171875 21.503906 57.640625 24.332031 57.121094 26.933594 C 56.378906 27.160156 55.632812 27.230469 54.988281 27.226562 C 54.804688 26.285156 54.355469 25.746094 53.90625 25.441406 L 53.90625 15.234375 C 53.90625 15.222656 53.898438 15.210938 53.898438 15.199219 C 53.894531 15.121094 53.871094 15.046875 53.851562 14.96875 C 53.832031 14.890625 53.824219 14.816406 53.792969 14.746094 C 53.785156 14.734375 53.789062 14.722656 53.78125 14.710938 C 53.640625 14.429688 53.445312 14.121094 53.203125 13.804688 C 54.113281 13.871094 54.785156 14.027344 54.796875 14.03125 C 54.890625 14.050781 54.984375 14.0625 55.078125 14.0625 C 55.601562 14.0625 56.082031 13.707031 56.214844 13.171875 C 56.371094 12.546875 55.988281 11.910156 55.363281 11.753906 C 55.261719 11.730469 53.054688 11.199219 50.773438 11.5625 C 49.667969 10.808594 48.25 10.09375 46.507812 9.515625 C 47.382812 9.382812 48.035156 9.375 48.046875 9.375 C 48.695312 9.371094 49.21875 8.847656 49.21875 8.203125 C 49.21875 7.554688 48.695312 7.03125 48.046875 7.03125 C 47.902344 7.03125 44.636719 7.050781 42.238281 8.535156 C 40.804688 8.328125 39.238281 8.203125 37.5 8.203125 C 36.597656 8.203125 35.753906 8.246094 34.933594 8.304688 C 36.304688 7.386719 37.765625 7.003906 37.785156 6.996094 C 38.414062 6.839844 38.792969 6.203125 38.636719 5.574219 C 38.480469 4.949219 37.84375 4.566406 37.214844 4.722656 C 37.039062 4.765625 33.070312 5.796875 31.183594 8.804688 C 27.851562 9.484375 25.4375 10.65625 23.789062 11.882812 C 24.109375 10.550781 24.640625 9.539062 25.382812 8.917969 Z M 22.414062 27.375 C 22.496094 27.328125 22.867188 27.347656 23.4375 27.628906 L 23.4375 31.050781 C 22.703125 30.289062 22.265625 28.953125 22.265625 28.125 C 22.265625 27.578125 22.390625 27.386719 22.414062 27.375 Z M 25.78125 27.40625 C 26.492188 26.597656 28.136719 24.476562 28.894531 21.601562 C 30.96875 21.289062 33.757812 21.09375 37.5 21.09375 C 41.242188 21.09375 44.03125 21.289062 46.105469 21.601562 C 46.863281 24.476562 48.507812 26.597656 49.21875 27.40625 L 49.21875 31.640625 C 49.21875 38.320312 42.566406 44.53125 37.5 44.53125 C 33.488281 44.53125 25.78125 39.085938 25.78125 31.640625 Z M 25.78125 27.40625 " fill-opacity="1" fill-rule="nonzero"/><path fill="#000000" d="M 21.09375 66.796875 C 20.445312 66.796875 19.921875 67.320312 19.921875 67.96875 L 19.921875 73.828125 C 19.921875 74.476562 20.445312 75 21.09375 75 C 21.742188 75 22.265625 74.476562 22.265625 73.828125 L 22.265625 67.96875 C 22.265625 67.320312 21.742188 66.796875 21.09375 66.796875 Z M 21.09375 66.796875 " fill-opacity="1" fill-rule="nonzero"/><path fill="#000000" d="M 53.90625 66.796875 C 53.257812 66.796875 52.734375 67.320312 52.734375 67.96875 L 52.734375 73.828125 C 52.734375 74.476562 53.257812 75 53.90625 75 C 54.554688 75 55.078125 74.476562 55.078125 73.828125 L 55.078125 67.96875 C 55.078125 67.320312 54.554688 66.796875 53.90625 66.796875 Z M 53.90625 66.796875 " fill-opacity="1" fill-rule="nonzero"/><path fill="#000000" d="M 43.359375 58.59375 C 43.359375 58.75 43.328125 58.898438 43.269531 59.042969 C 43.210938 59.1875 43.125 59.3125 43.015625 59.421875 C 42.90625 59.53125 42.78125 59.617188 42.636719 59.675781 C 42.492188 59.734375 42.34375 59.765625 42.1875 59.765625 C 42.03125 59.765625 41.882812 59.734375 41.738281 59.675781 C 41.59375 59.617188 41.46875 59.53125 41.359375 59.421875 C 41.25 59.3125 41.164062 59.1875 41.105469 59.042969 C 41.046875 58.898438 41.015625 58.75 41.015625 58.59375 C 41.015625 58.4375 41.046875 58.289062 41.105469 58.144531 C 41.164062 58 41.25 57.875 41.359375 57.765625 C 41.46875 57.65625 41.59375 57.570312 41.738281 57.511719 C 41.882812 57.453125 42.03125 57.421875 42.1875 57.421875 C 42.34375 57.421875 42.492188 57.453125 42.636719 57.511719 C 42.78125 57.570312 42.90625 57.65625 43.015625 57.765625 C 43.125 57.875 43.210938 58 43.269531 58.144531 C 43.328125 58.289062 43.359375 58.4375 43.359375 58.59375 Z M 43.359375 58.59375 " fill-opacity="1" fill-rule="nonzero"/><path fill="#000000" d="M 33.984375 58.59375 C 33.984375 58.75 33.953125 58.898438 33.894531 59.042969 C 33.835938 59.1875 33.75 59.3125 33.640625 59.421875 C 33.53125 59.53125 33.40625 59.617188 33.261719 59.675781 C 33.117188 59.734375 32.96875 59.765625 32.8125 59.765625 C 32.65625 59.765625 32.507812 59.734375 32.363281 59.675781 C 32.21875 59.617188 32.09375 59.53125 31.984375 59.421875 C 31.875 59.3125 31.789062 59.1875 31.730469 59.042969 C 31.671875 58.898438 31.640625 58.75 31.640625 58.59375 C 31.640625 58.4375 31.671875 58.289062 31.730469 58.144531 C 31.789062 58 31.875 57.875 31.984375 57.765625 C 32.09375 57.65625 32.21875 57.570312 32.363281 57.511719 C 32.507812 57.453125 32.65625 57.421875 32.8125 57.421875 C 32.96875 57.421875 33.117188 57.453125 33.261719 57.511719 C 33.40625 57.570312 33.53125 57.65625 33.640625 57.765625 C 33.75 57.875 33.835938 58 33.894531 58.144531 C 33.953125 58.289062 33.984375 58.4375 33.984375 58.59375 Z M 33.984375 58.59375 " fill-opacity="1" fill-rule="nonzero"/><path fill="#000000" d="M 43.359375 65.625 C 43.359375 65.78125 43.328125 65.929688 43.269531 66.074219 C 43.210938 66.21875 43.125 66.34375 43.015625 66.453125 C 42.90625 66.5625 42.78125 66.648438 42.636719 66.707031 C 42.492188 66.765625 42.34375 66.796875 42.1875 66.796875 C 42.03125 66.796875 41.882812 66.765625 41.738281 66.707031 C 41.59375 66.648438 41.46875 66.5625 41.359375 66.453125 C 41.25 66.34375 41.164062 66.21875 41.105469 66.074219 C 41.046875 65.929688 41.015625 65.78125 41.015625 65.625 C 41.015625 65.46875 41.046875 65.320312 41.105469 65.175781 C 41.164062 65.03125 41.25 64.90625 41.359375 64.796875 C 41.46875 64.6875 41.59375 64.601562 41.738281 64.542969 C 41.882812 64.484375 42.03125 64.453125 42.1875 64.453125 C 42.34375 64.453125 42.492188 64.484375 42.636719 64.542969 C 42.78125 64.601562 42.90625 64.6875 43.015625 64.796875 C 43.125 64.90625 43.210938 65.03125 43.269531 65.175781 C 43.328125 65.320312 43.359375 65.46875 43.359375 65.625 Z M 43.359375 65.625 " fill-opacity="1" fill-rule="nonzero"/><path fill="#000000" d="M 33.984375 65.625 C 33.984375 65.78125 33.953125 65.929688 33.894531 66.074219 C 33.835938 66.21875 33.75 66.34375 33.640625 66.453125 C 33.53125 66.5625 33.40625 66.648438 33.261719 66.707031 C 33.117188 66.765625 32.96875 66.796875 32.8125 66.796875 C 32.65625 66.796875 32.507812 66.765625 32.363281 66.707031 C 32.21875 66.648438 32.09375 66.5625 31.984375 66.453125 C 31.875 66.34375 31.789062 66.21875 31.730469 66.074219 C 31.671875 65.929688 31.640625 65.78125 31.640625 65.625 C 31.640625 65.46875 31.671875 65.320312 31.730469 65.175781 C 31.789062 65.03125 31.875 64.90625 31.984375 64.796875 C 32.09375 64.6875 32.21875 64.601562 32.363281 64.542969 C 32.507812 64.484375 32.65625 64.453125 32.8125 64.453125 C 32.96875 64.453125 33.117188 64.484375 33.261719 64.542969 C 33.40625 64.601562 33.53125 64.6875 33.640625 64.796875 C 33.75 64.90625 33.835938 65.03125 33.894531 65.175781 C 33.953125 65.320312 33.984375 65.46875 33.984375 65.625 Z M 33.984375 65.625 " fill-opacity="1" fill-rule="nonzero"/><path fill="#000000" d="M 43.359375 72.65625 C 43.359375 72.8125 43.328125 72.960938 43.269531 73.105469 C 43.210938 73.25 43.125 73.375 43.015625 73.484375 C 42.90625 73.59375 42.78125 73.679688 42.636719 73.738281 C 42.492188 73.796875 42.34375 73.828125 42.1875 73.828125 C 42.03125 73.828125 41.882812 73.796875 41.738281 73.738281 C 41.59375 73.679688 41.46875 73.59375 41.359375 73.484375 C 41.25 73.375 41.164062 73.25 41.105469 73.105469 C 41.046875 72.960938 41.015625 72.8125 41.015625 72.65625 C 41.015625 72.5 41.046875 72.351562 41.105469 72.207031 C 41.164062 72.0625 41.25 71.9375 41.359375 71.828125 C 41.46875 71.71875 41.59375 71.632812 41.738281 71.574219 C 41.882812 71.515625 42.03125 71.484375 42.1875 71.484375 C 42.34375 71.484375 42.492188 71.515625 42.636719 71.574219 C 42.78125 71.632812 42.90625 71.71875 43.015625 71.828125 C 43.125 71.9375 43.210938 72.0625 43.269531 72.207031 C 43.328125 72.351562 43.359375 72.5 43.359375 72.65625 Z M 43.359375 72.65625 " fill-opacity="1" fill-rule="nonzero"/><path fill="#000000" d="M 33.984375 72.65625 C 33.984375 72.8125 33.953125 72.960938 33.894531 73.105469 C 33.835938 73.25 33.75 73.375 33.640625 73.484375 C 33.53125 73.59375 33.40625 73.679688 33.261719 73.738281 C 33.117188 73.796875 32.96875 73.828125 32.8125 73.828125 C 32.65625 73.828125 32.507812 73.796875 32.363281 73.738281 C 32.21875 73.679688 32.09375 73.59375 31.984375 73.484375 C 31.875 73.375 31.789062 73.25 31.730469 73.105469 C 31.671875 72.960938 31.640625 72.8125 31.640625 72.65625 C 31.640625 72.5 31.671875 72.351562 31.730469 72.207031 C 31.789062 72.0625 31.875 71.9375 31.984375 71.828125 C 32.09375 71.71875 32.21875 71.632812 32.363281 71.574219 C 32.507812 71.515625 32.65625 71.484375 32.8125 71.484375 C 32.96875 71.484375 33.117188 71.515625 33.261719 71.574219 C 33.40625 71.632812 33.53125 71.71875 33.640625 71.828125 C 33.75 71.9375 33.835938 72.0625 33.894531 72.207031 C 33.953125 72.351562 33.984375 72.5 33.984375 72.65625 Z M 33.984375 72.65625 " fill-opacity="1" fill-rule="nonzero"/></svg>