<svg xmlns="http://www.w3.org/2000/svg" xmlns:xlink="http://www.w3.org/1999/xlink" width="100" zoomAndPan="magnify" viewBox="0 0 75 74.999997" height="100" preserveAspectRatio="xMidYMid meet" version="1.0"><path fill="#000000" d="M 26.035156 55.769531 C 25.890625 56.03125 25.667969 56.109375 25.457031 56.109375 C 25.246094 56.109375 25.035156 56.03125 24.890625 55.769531 L 23.375 52.921875 L 23.375 58.691406 C 23.375 59.046875 22.941406 59.230469 22.519531 59.230469 C 22.085938 59.230469 21.664062 59.046875 21.664062 58.691406 L 21.664062 50.460938 C 21.664062 49.828125 22.085938 49.605469 22.519531 49.605469 C 23.140625 49.605469 23.417969 49.738281 23.851562 50.511719 L 25.472656 53.464844 L 27.089844 50.511719 C 27.523438 49.738281 27.816406 49.605469 28.433594 49.605469 C 28.867188 49.605469 29.289062 49.828125 29.289062 50.460938 L 29.289062 58.691406 C 29.289062 59.046875 28.855469 59.230469 28.433594 59.230469 C 28 59.230469 27.578125 59.046875 27.578125 58.691406 L 27.578125 53.027344 Z M 26.035156 55.769531 " fill-opacity="1" fill-rule="nonzero"/><path fill="#000000" d="M 34.054688 53.738281 L 36.058594 53.738281 C 36.398438 53.738281 36.597656 54.070312 36.597656 54.425781 C 36.597656 54.726562 36.425781 55.082031 36.058594 55.082031 L 34.054688 55.082031 L 34.054688 57.730469 L 37.78125 57.730469 C 38.125 57.730469 38.320312 58.085938 38.320312 58.492188 C 38.320312 58.847656 38.152344 59.230469 37.78125 59.230469 L 33.09375 59.230469 C 32.710938 59.230469 32.34375 59.046875 32.34375 58.691406 L 32.34375 50.144531 C 32.34375 49.789062 32.710938 49.605469 33.09375 49.605469 L 37.78125 49.605469 C 38.152344 49.605469 38.320312 49.988281 38.320312 50.34375 C 38.320312 50.75 38.125 51.105469 37.78125 51.105469 L 34.054688 51.105469 Z M 34.054688 53.738281 " fill-opacity="1" fill-rule="nonzero"/><path fill="#000000" d="M 45.339844 58.691406 L 42.507812 53.398438 L 42.507812 58.691406 C 42.507812 59.046875 42.074219 59.230469 41.652344 59.230469 C 41.21875 59.230469 40.796875 59.046875 40.796875 58.691406 L 40.796875 50.144531 C 40.796875 49.777344 41.21875 49.605469 41.652344 49.605469 C 42.273438 49.605469 42.523438 49.738281 42.929688 50.511719 L 45.472656 55.425781 L 45.472656 50.132812 C 45.472656 49.761719 45.890625 49.605469 46.328125 49.605469 C 46.75 49.605469 47.183594 49.761719 47.183594 50.132812 L 47.183594 58.691406 C 47.183594 59.046875 46.75 59.230469 46.328125 59.230469 C 45.917969 59.230469 45.5625 59.097656 45.339844 58.691406 Z M 45.339844 58.691406 " fill-opacity="1" fill-rule="nonzero"/><path fill="#000000" d="M 54.808594 50.132812 C 54.808594 49.761719 55.226562 49.605469 55.664062 49.605469 C 56.085938 49.605469 56.519531 49.761719 56.519531 50.132812 L 56.519531 56.292969 C 56.519531 58.492188 55.121094 59.308594 53.359375 59.308594 C 51.582031 59.308594 50.199219 58.492188 50.199219 56.292969 L 50.199219 50.132812 C 50.199219 49.761719 50.617188 49.605469 51.054688 49.605469 C 51.476562 49.605469 51.910156 49.761719 51.910156 50.132812 L 51.910156 56.292969 C 51.910156 57.320312 52.449219 57.808594 53.359375 57.808594 C 54.265625 57.808594 54.804688 57.320312 54.804688 56.292969 L 54.804688 50.132812 Z M 54.808594 50.132812 " fill-opacity="1" fill-rule="nonzero"/><path fill="#000000" d="M 58.191406 61.839844 L 51.933594 61.839844 C 51.316406 61.839844 50.820312 62.335938 50.820312 62.949219 C 50.820312 63.5625 51.316406 64.0625 51.933594 64.0625 L 58.191406 64.0625 C 58.804688 64.0625 59.304688 63.5625 59.304688 62.949219 C 59.304688 62.335938 58.804688 61.839844 58.191406 61.839844 Z M 58.191406 61.839844 " fill-opacity="1" fill-rule="nonzero"/><path fill="#000000" d="M 46.757812 61.839844 L 21.425781 61.839844 C 20.8125 61.839844 20.3125 62.335938 20.3125 62.949219 C 20.3125 63.5625 20.8125 64.0625 21.425781 64.0625 L 46.757812 64.0625 C 47.375 64.0625 47.871094 63.5625 47.871094 62.949219 C 47.871094 62.335938 47.375 61.839844 46.757812 61.839844 Z M 46.757812 61.839844 " fill-opacity="1" fill-rule="nonzero"/><path fill="#000000" d="M 58.191406 44.859375 L 21.425781 44.859375 C 20.8125 44.859375 20.3125 45.355469 20.3125 45.972656 C 20.3125 46.585938 20.8125 47.082031 21.425781 47.082031 L 58.191406 47.082031 C 58.804688 47.082031 59.304688 46.585938 59.304688 45.972656 C 59.304688 45.355469 58.804688 44.859375 58.191406 44.859375 Z M 58.191406 44.859375 " fill-opacity="1" fill-rule="nonzero"/><path fill="#000000" d="M 57.574219 31.074219 L 56.496094 31.074219 C 56.078125 23.414062 50.476562 17.109375 43.148438 15.617188 L 43.363281 13.5625 C 43.433594 12.894531 43.214844 12.222656 42.765625 11.722656 C 42.3125 11.222656 41.667969 10.9375 40.996094 10.9375 L 38.621094 10.9375 C 37.949219 10.9375 37.304688 11.226562 36.851562 11.722656 C 36.402344 12.222656 36.183594 12.894531 36.253906 13.5625 L 36.46875 15.617188 C 29.140625 17.109375 23.539062 23.410156 23.125 31.074219 L 22.042969 31.074219 C 21.089844 31.074219 20.3125 31.847656 20.3125 32.804688 L 20.3125 35.097656 C 20.3125 36.054688 21.089844 36.828125 22.042969 36.828125 L 57.574219 36.828125 C 58.527344 36.828125 59.304688 36.054688 59.304688 35.097656 L 59.304688 32.804688 C 59.304688 31.851562 58.527344 31.074219 57.574219 31.074219 Z M 38.507812 13.210938 C 38.535156 13.179688 38.574219 13.160156 38.621094 13.160156 L 40.996094 13.160156 C 41.042969 13.160156 41.082031 13.179688 41.113281 13.210938 C 41.144531 13.246094 41.15625 13.289062 41.152344 13.332031 L 40.945312 15.320312 C 40.570312 15.292969 40.191406 15.28125 39.808594 15.28125 C 39.429688 15.28125 39.050781 15.292969 38.675781 15.320312 L 38.46875 13.332031 C 38.460938 13.289062 38.476562 13.246094 38.507812 13.210938 Z M 57.082031 34.605469 L 22.539062 34.605469 L 22.539062 33.296875 L 27.222656 33.296875 C 27.839844 33.296875 28.335938 32.800781 28.335938 32.183594 C 28.335938 31.570312 27.839844 31.074219 27.222656 31.074219 L 25.351562 31.074219 C 25.828125 23.511719 32.128906 17.503906 39.808594 17.503906 C 47.488281 17.503906 53.792969 23.511719 54.265625 31.074219 L 32.398438 31.074219 C 31.78125 31.074219 31.285156 31.570312 31.285156 32.183594 C 31.285156 32.800781 31.78125 33.296875 32.398438 33.296875 L 57.082031 33.296875 Z M 57.082031 34.605469 " fill-opacity="1" fill-rule="nonzero"/><path fill="#000000" d="M 66.136719 0 L 13.484375 0 C 11.921875 0 10.652344 1.269531 10.652344 2.832031 L 10.652344 4.839844 L 9.613281 4.839844 C 7.707031 4.839844 6.152344 6.394531 6.152344 8.300781 C 6.152344 10.210938 7.707031 11.765625 9.613281 11.765625 L 10.652344 11.765625 L 10.652344 16.519531 L 9.613281 16.519531 C 7.707031 16.519531 6.152344 18.070312 6.152344 19.980469 C 6.152344 21.890625 7.707031 23.441406 9.613281 23.441406 L 10.652344 23.441406 L 10.652344 28.199219 L 9.613281 28.199219 C 7.707031 28.199219 6.152344 29.75 6.152344 31.660156 C 6.152344 33.570312 7.707031 35.121094 9.613281 35.121094 L 10.652344 35.121094 L 10.652344 39.878906 L 9.613281 39.878906 C 7.707031 39.878906 6.152344 41.429688 6.152344 43.339844 C 6.152344 45.25 7.707031 46.800781 9.613281 46.800781 L 10.652344 46.800781 L 10.652344 51.558594 L 9.613281 51.558594 C 7.707031 51.558594 6.152344 53.109375 6.152344 55.019531 C 6.152344 56.929688 7.707031 58.480469 9.613281 58.480469 L 10.652344 58.480469 L 10.652344 63.234375 L 9.613281 63.234375 C 7.707031 63.234375 6.152344 64.789062 6.152344 66.699219 C 6.152344 68.605469 7.707031 70.160156 9.613281 70.160156 L 10.652344 70.160156 L 10.652344 72.167969 C 10.652344 73.730469 11.921875 75 13.484375 75 L 66.136719 75 C 67.695312 75 68.96875 73.730469 68.96875 72.167969 L 68.96875 2.832031 C 68.96875 1.269531 67.695312 0 66.136719 0 Z M 10.652344 9.539062 L 9.613281 9.539062 C 8.929688 9.539062 8.375 8.984375 8.375 8.300781 C 8.375 7.621094 8.929688 7.0625 9.613281 7.0625 L 10.652344 7.0625 Z M 10.652344 21.21875 L 9.613281 21.21875 C 8.929688 21.21875 8.375 20.664062 8.375 19.980469 C 8.375 19.296875 8.929688 18.742188 9.613281 18.742188 L 10.652344 18.742188 Z M 10.652344 32.898438 L 9.613281 32.898438 C 8.929688 32.898438 8.375 32.34375 8.375 31.660156 C 8.375 30.976562 8.929688 30.421875 9.613281 30.421875 L 10.652344 30.421875 Z M 10.652344 44.578125 L 9.613281 44.578125 C 8.929688 44.578125 8.375 44.023438 8.375 43.339844 C 8.375 42.65625 8.929688 42.101562 9.613281 42.101562 L 10.652344 42.101562 Z M 10.652344 56.257812 L 9.613281 56.257812 C 8.929688 56.257812 8.375 55.703125 8.375 55.019531 C 8.375 54.335938 8.929688 53.78125 9.613281 53.78125 L 10.652344 53.78125 Z M 10.652344 67.9375 L 9.613281 67.9375 C 8.929688 67.9375 8.375 67.378906 8.375 66.699219 C 8.375 66.015625 8.929688 65.460938 9.613281 65.460938 L 10.652344 65.460938 Z M 66.742188 72.167969 C 66.742188 72.503906 66.46875 72.777344 66.136719 72.777344 L 13.484375 72.777344 C 13.148438 72.777344 12.875 72.503906 12.875 72.167969 L 12.875 2.832031 C 12.875 2.496094 13.148438 2.222656 13.484375 2.222656 L 66.136719 2.222656 C 66.46875 2.222656 66.742188 2.496094 66.742188 2.832031 Z M 66.742188 72.167969 " fill-opacity="1" fill-rule="nonzero"/></svg>