<svg xmlns="http://www.w3.org/2000/svg" xmlns:xlink="http://www.w3.org/1999/xlink" width="100" zoomAndPan="magnify" viewBox="0 0 75 74.999997" height="100" preserveAspectRatio="xMidYMid meet" version="1.0"><path fill="#000000" d="M 65.730469 44.277344 C 67.003906 41.671875 67.351562 38.726562 66.765625 35.929688 L 72.152344 32.675781 C 72.359375 32.550781 72.550781 32.40625 72.71875 32.242188 C 73.355469 31.636719 73.714844 30.820312 73.738281 29.945312 C 73.757812 29.066406 73.433594 28.234375 72.828125 27.597656 L 72.507812 27.265625 C 72.285156 27.027344 72.023438 26.84375 71.75 26.6875 L 71.859375 26.585938 C 72.539062 25.9375 72.925781 25.0625 72.949219 24.121094 C 72.972656 23.183594 72.625 22.292969 71.976562 21.613281 C 70.636719 20.210938 68.40625 20.160156 67.007812 21.496094 L 66.894531 21.601562 C 66.753906 21.324219 66.585938 21.054688 66.355469 20.816406 L 66.039062 20.480469 C 65.429688 19.84375 64.617188 19.484375 63.738281 19.464844 C 62.863281 19.449219 62.03125 19.765625 61.398438 20.367188 C 61.222656 20.535156 61.066406 20.722656 60.933594 20.921875 L 57.433594 26.148438 C 56.933594 26.019531 56.433594 25.914062 55.925781 25.84375 C 55.265625 21.230469 53.847656 18.355469 53.785156 18.226562 L 53.261719 17.175781 L 51.640625 17.984375 L 49.917969 6.796875 C 49.417969 3.539062 46.660156 1.171875 43.359375 1.171875 C 40.0625 1.171875 37.300781 3.539062 36.800781 6.800781 L 35.0625 18.101562 L 33.574219 16.949219 L 32.9375 18.226562 C 32.839844 18.414062 30.738281 22.703125 30.492188 29.234375 C 29 28.65625 27.402344 28.296875 25.734375 28.183594 C 25.546875 22.003906 24.617188 16.40625 19.921875 16.40625 L 19.921875 18.75 C 21.605469 18.75 22.476562 20.546875 22.933594 23.097656 C 21.496094 21.851562 19.625 21.09375 17.578125 21.09375 L 9.375 21.09375 L 9.375 22.265625 C 9.375 26.375 12.417969 29.78125 16.367188 30.367188 C 11.492188 33.214844 8.203125 38.492188 8.203125 44.53125 C 8.203125 44.5625 8.210938 44.59375 8.210938 44.628906 C 3.558594 46.199219 1.171875 48.132812 1.171875 50.390625 C 1.171875 63.3125 11.6875 73.828125 24.609375 73.828125 L 50.390625 73.828125 C 63.3125 73.828125 73.828125 63.3125 73.828125 50.390625 C 73.828125 47.960938 71.101562 45.90625 65.730469 44.277344 Z M 71.484375 50.390625 C 71.484375 52.652344 63.800781 55.601562 50.644531 56.835938 L 61.351562 49.363281 C 61.886719 48.988281 62.402344 48.570312 62.875 48.121094 L 63.074219 47.929688 C 63.589844 47.433594 64.042969 46.902344 64.460938 46.347656 C 69.621094 47.828125 71.484375 49.433594 71.484375 50.390625 Z M 40.980469 43.808594 L 49.5625 52.390625 L 51.21875 50.734375 L 41.84375 41.359375 L 40.851562 42.351562 C 40.71875 41.339844 40.496094 40.355469 40.1875 39.414062 L 45.617188 32.359375 C 45.941406 31.9375 46.304688 31.535156 46.691406 31.164062 L 46.890625 30.972656 C 51.097656 26.957031 57.785156 27.113281 61.800781 31.320312 C 65.816406 35.527344 65.660156 42.21875 61.453125 46.234375 L 61.253906 46.425781 C 60.867188 46.792969 60.449219 47.136719 60.007812 47.441406 L 46.054688 57.183594 C 43.378906 57.335938 40.527344 57.421875 37.5 57.421875 C 36.574219 57.421875 35.667969 57.410156 34.777344 57.394531 C 38.652344 54.328125 41.015625 49.613281 41.015625 44.53125 C 41.015625 44.289062 40.988281 44.050781 40.980469 43.808594 Z M 70.15625 28.589844 C 70.40625 28.597656 70.640625 28.699219 70.8125 28.882812 L 71.132812 29.21875 C 71.304688 29.398438 71.398438 29.636719 71.394531 29.886719 C 71.386719 30.136719 71.285156 30.371094 71.101562 30.546875 C 71.054688 30.59375 71 30.632812 70.9375 30.667969 L 66.046875 33.625 C 65.902344 33.273438 65.742188 32.929688 65.5625 32.589844 L 69.484375 28.847656 C 69.664062 28.679688 69.875 28.601562 70.15625 28.589844 Z M 70.28125 23.230469 C 70.496094 23.457031 70.613281 23.753906 70.605469 24.066406 C 70.597656 24.378906 70.46875 24.671875 70.242188 24.886719 L 64.265625 30.59375 C 64.023438 30.289062 63.769531 29.992188 63.496094 29.703125 C 63.226562 29.417969 62.9375 29.152344 62.644531 28.898438 L 66.25 25.460938 C 66.25 25.460938 66.25 25.460938 66.25 25.457031 L 68.621094 23.195312 C 69.089844 22.746094 69.835938 22.765625 70.28125 23.230469 Z M 62.882812 22.21875 C 62.917969 22.164062 62.960938 22.117188 63.011719 22.066406 C 63.191406 21.894531 63.425781 21.8125 63.683594 21.808594 C 63.933594 21.8125 64.167969 21.917969 64.339844 22.097656 L 64.660156 22.433594 C 65.015625 22.808594 65.003906 23.402344 64.628906 23.757812 L 60.707031 27.503906 C 60.378906 27.308594 60.039062 27.132812 59.699219 26.972656 Z M 53.535156 25.746094 C 50.546875 25.890625 47.597656 27.058594 45.269531 29.277344 L 45.074219 29.46875 C 44.597656 29.921875 44.15625 30.410156 43.757812 30.929688 L 39.136719 36.933594 C 37.691406 34.1875 35.492188 31.902344 32.816406 30.347656 C 32.816406 30.234375 32.820312 30.128906 32.824219 30.015625 L 52.140625 20.355469 C 52.554688 21.445312 53.152344 23.3125 53.535156 25.746094 Z M 39.117188 7.152344 C 39.441406 5.046875 41.226562 3.515625 43.359375 3.515625 C 45.492188 3.515625 47.277344 5.046875 47.601562 7.152344 L 49.4375 19.085938 L 41.457031 23.078125 L 37.179688 19.75 Z M 34.480469 20.621094 L 39.132812 24.238281 L 32.980469 27.316406 C 33.292969 24.324219 33.988281 21.988281 34.480469 20.621094 Z M 11.835938 23.4375 L 17.578125 23.4375 C 20.40625 23.4375 22.773438 25.453125 23.320312 28.125 L 17.578125 28.125 C 14.746094 28.125 12.378906 26.109375 11.835938 23.4375 Z M 23.429688 30.527344 C 23.4375 31.300781 23.4375 32.066406 23.4375 32.8125 L 23.4375 34.976562 C 22.703125 34.738281 22.265625 34.3125 22.265625 33.984375 L 19.921875 33.984375 C 19.921875 35.957031 21.980469 37.5 24.609375 37.5 C 27.238281 37.5 29.296875 35.957031 29.296875 33.984375 L 26.953125 33.984375 C 26.953125 34.3125 26.515625 34.738281 25.78125 34.976562 L 25.78125 32.8125 C 25.78125 32.058594 25.78125 31.292969 25.773438 30.527344 C 32.984375 31.121094 38.671875 37.171875 38.671875 44.53125 C 38.671875 49.988281 35.496094 54.953125 30.566406 57.265625 C 24.972656 57.007812 20.113281 56.457031 16.125 55.734375 C 12.632812 53.085938 10.546875 48.917969 10.546875 44.53125 C 10.546875 37.175781 16.226562 31.128906 23.429688 30.527344 Z M 8.417969 47.023438 C 8.863281 49.882812 10.054688 52.574219 11.859375 54.820312 C 6.476562 53.460938 3.515625 51.792969 3.515625 50.390625 C 3.515625 49.613281 4.835938 48.3125 8.417969 47.023438 Z M 50.390625 71.484375 L 24.609375 71.484375 C 14.273438 71.484375 5.664062 64.003906 3.875 54.179688 C 9.605469 57.859375 23.613281 59.765625 37.5 59.765625 C 51.386719 59.765625 65.394531 57.859375 71.125 54.179688 C 69.332031 64.003906 60.726562 71.484375 50.390625 71.484375 Z M 50.390625 71.484375 " fill-opacity="1" fill-rule="nonzero"/><path fill="#000000" d="M 64.898438 58.046875 C 62.039062 63.441406 56.476562 66.796875 50.390625 66.796875 L 49.21875 66.796875 L 49.21875 69.140625 L 50.390625 69.140625 C 57.347656 69.140625 63.703125 65.308594 66.96875 59.140625 Z M 64.898438 58.046875 " fill-opacity="1" fill-rule="nonzero"/><path fill="#000000" d="M 39.84375 7.03125 L 42.1875 7.03125 L 42.1875 9.375 L 39.84375 9.375 Z M 39.84375 7.03125 " fill-opacity="1" fill-rule="nonzero"/><path fill="#000000" d="M 44.53125 7.03125 L 46.875 7.03125 L 46.875 9.375 L 44.53125 9.375 Z M 44.53125 7.03125 " fill-opacity="1" fill-rule="nonzero"/><path fill="#000000" d="M 39.84375 11.71875 L 42.1875 11.71875 L 42.1875 14.0625 L 39.84375 14.0625 Z M 39.84375 11.71875 " fill-opacity="1" fill-rule="nonzero"/><path fill="#000000" d="M 44.53125 11.71875 L 46.875 11.71875 L 46.875 14.0625 L 44.53125 14.0625 Z M 44.53125 11.71875 " fill-opacity="1" fill-rule="nonzero"/><path fill="#000000" d="M 39.84375 16.40625 L 42.1875 16.40625 L 42.1875 18.75 L 39.84375 18.75 Z M 39.84375 16.40625 " fill-opacity="1" fill-rule="nonzero"/><path fill="#000000" d="M 44.53125 16.40625 L 46.875 16.40625 L 46.875 18.75 L 44.53125 18.75 Z M 44.53125 16.40625 " fill-opacity="1" fill-rule="nonzero"/><path fill="#000000" d="M 16.207031 40.363281 L 14.109375 39.320312 C 13.695312 40.148438 13.386719 41.027344 13.179688 41.925781 L 15.464844 42.445312 C 15.628906 41.726562 15.878906 41.027344 16.207031 40.363281 Z M 16.207031 40.363281 " fill-opacity="1" fill-rule="nonzero"/><path fill="#000000" d="M 19.402344 55.03125 L 20.445312 52.933594 C 17.230469 51.335938 15.234375 48.117188 15.234375 44.53125 L 12.890625 44.53125 C 12.890625 49.011719 15.386719 53.035156 19.402344 55.03125 Z M 19.402344 55.03125 " fill-opacity="1" fill-rule="nonzero"/><path fill="#000000" d="M 49.554688 33.644531 L 51.210938 31.984375 L 60.585938 41.359375 L 58.929688 43.019531 Z M 49.554688 33.644531 " fill-opacity="1" fill-rule="nonzero"/><path fill="#000000" d="M 44.863281 38.328125 L 46.523438 36.671875 L 55.898438 46.046875 L 54.242188 47.703125 Z M 44.863281 38.328125 " fill-opacity="1" fill-rule="nonzero"/><path fill="#000000" d="M 44.53125 66.796875 L 46.875 66.796875 L 46.875 69.140625 L 44.53125 69.140625 Z M 44.53125 66.796875 " fill-opacity="1" fill-rule="nonzero"/></svg>