<svg xmlns="http://www.w3.org/2000/svg" xmlns:xlink="http://www.w3.org/1999/xlink" width="40" zoomAndPan="magnify" viewBox="0 0 30 30.000001" height="40" preserveAspectRatio="xMidYMid meet" version="1.0"><defs><clipPath id="217bd8435b"><path d="M 3 4.425781 L 18 4.425781 L 18 24.75 L 3 24.75 Z M 3 4.425781 " clip-rule="nonzero"/></clipPath></defs><g clip-path="url(#217bd8435b)"><path fill="#333333" d="M 9.882812 24.601562 C 7.957031 24.601562 6.15625 24.203125 4.226562 23.351562 C 3.976562 23.242188 3.851562 23.050781 3.851562 22.773438 L 3.851562 18.027344 C 3.851562 17.917969 3.878906 17.8125 3.933594 17.714844 C 3.988281 17.617188 4.066406 17.539062 4.160156 17.484375 C 4.257812 17.425781 4.363281 17.398438 4.472656 17.398438 C 4.585938 17.394531 4.691406 17.421875 4.789062 17.476562 C 6.640625 18.511719 8.449219 19.078125 9.886719 19.078125 C 11.222656 19.078125 11.222656 18.632812 11.222656 18.421875 C 11.222656 17.863281 10.109375 17.453125 8.929688 17.015625 C 6.609375 16.15625 3.425781 14.980469 3.425781 11.019531 C 3.425781 7.015625 6.394531 4.425781 10.992188 4.425781 C 12.96875 4.425781 14.863281 4.777344 16.472656 5.4375 C 16.734375 5.546875 16.863281 5.738281 16.863281 6.019531 L 16.863281 10.980469 C 16.863281 11.09375 16.835938 11.195312 16.78125 11.292969 C 16.726562 11.390625 16.648438 11.46875 16.554688 11.523438 C 16.457031 11.582031 16.355469 11.609375 16.242188 11.609375 C 16.132812 11.613281 16.027344 11.585938 15.929688 11.53125 C 14.550781 10.769531 12.5625 10.253906 10.988281 10.253906 C 9.878906 10.253906 9.878906 10.601562 9.878906 10.765625 C 9.878906 11.21875 10.953125 11.597656 11.996094 11.960938 C 14.273438 12.753906 17.71875 13.957031 17.71875 18.296875 C 17.71875 22.246094 14.789062 24.601562 9.882812 24.601562 M 5.113281 22.359375 C 6.738281 23.027344 8.261719 23.339844 9.882812 23.339844 C 11.859375 23.339844 16.457031 22.851562 16.457031 18.296875 C 16.457031 14.851562 13.867188 13.949219 11.582031 13.152344 C 10.054688 12.621094 8.617188 12.121094 8.617188 10.769531 C 8.617188 10.144531 8.882812 9.65625 9.386719 9.347656 C 9.78125 9.113281 10.300781 8.996094 10.988281 8.996094 C 12.425781 8.996094 14.167969 9.378906 15.601562 9.980469 L 15.601562 6.453125 C 14.230469 5.953125 12.644531 5.6875 10.992188 5.6875 C 7.101562 5.6875 4.6875 7.730469 4.6875 11.019531 C 4.6875 14.101562 7.171875 15.019531 9.367188 15.832031 C 10.972656 16.425781 12.484375 16.984375 12.484375 18.421875 C 12.484375 19.136719 12.148438 20.339844 9.886719 20.339844 C 8.15625 20.339844 6.375 19.671875 5.113281 19.066406 Z M 5.113281 22.359375 " fill-opacity="1" fill-rule="nonzero"/></g></svg>